<svg xmlns="http://www.w3.org/2000/svg" viewBox="0 0 24 24" shape-rendering="geometricPrecision" text-rendering="geometricPrecision" image-rendering="optimizeQuality" fill-rule="evenodd" clip-rule="evenodd">
<path fill="#efefe8" d="M266.5 115.5c-15.1-10.35-26.6-7.35-34.5 9a26.53 26.53 0 0 0-2.5 12 7.06 7.06 0 0 0-2.5 2c-.5-2.31-.66-4.64-.5-7a36.02 36.02 0 0 1 5-17c11.07-12.91 22.57-13.25 34.5-1 .46.6.63 1.26.5 2Z"/><path fill="#062322" d="m280.5 170.5-4-2c-.7.53-1.2 1.2-1.5 2l-1-1a640.34 640.34 0 0 0-1.5-36 37.26 37.26 0 0 0-6-18c.13-.74-.04-1.4-.5-2-11.93-12.25-23.43-11.91-34.5 1-1.8-1.1-2.97-.44-3.5 2l-1-1a35.9 35.9 0 0 0-7.5 11c2.18-12.07 8.51-21.07 19-27a35.58 35.58 0 0 1 17-1.5c14.04 5.38 22.2 15.54 24.5 30.5.5 14 .67 28 .5 42Z"/><path fill="#f8d298" d="M266.5 115.5c.24 6.31-1.76 11.65-6 16 .5-2.3.83-4.64 1-7 .5-6-2.17-8.17-8-6.5a69.24 69.24 0 0 0-19.5 14.5 23.42 23.42 0 0 0-2.5 6c-1.7 1.16-2.37.5-2-2-.1-4.19.73-8.19 2.5-12 7.9-16.35 19.4-19.35 34.5-9Z"/><path fill="#dbf4b6" d="M331.5 133.5c-2.72-2.27-5.72-2.6-9-1a11.74 11.74 0 0 1-5-3v-1c.81-1.5 2.14-2.16 4-2 5.03.04 8.36 2.37 10 7Z"/><path fill="#b1e199" d="M363.5 127.5c2.36-.16 4.69 0 7 .5 1.3 1.62 1.3 3.12 0 4.5a3.1 3.1 0 0 0-1-3c-2.6.73-5.28 1.23-8 1.5a14.24 14.24 0 0 1-4 4.5 12.27 12.27 0 0 1 6-8Z"/><path fill="#9dee86" d="M370.5 132.5c-3.77 2.6-7.44 5.43-11 8.5-.95.48-1.95.65-3 .5v-3c.06-1.1.39-2.1 1-3a14.24 14.24 0 0 0 4-4.5c2.72-.27 5.4-.77 8-1.5a3.1 3.1 0 0 1 1 3Z"/><path fill="#f7be84" d="M266.5 115.5a37.26 37.26 0 0 1 6 18v14c-.9-1.1-1.73-1.1-2.5 0a72.84 72.84 0 0 1-4 15 15.42 15.42 0 0 1-6 7 4.93 4.93 0 0 0-.5 3c-3.59.04-6.09 1.71-7.5 5 .5 1.4 1.33 2.73 2.5 4-1-.17-1.66.16-2 1a43.02 43.02 0 0 0-14.5 10c-3-5.67-7.33-10-13-13-.5-2.65-.66-5.31-.5-8a9.6 9.6 0 0 0 1-6c1.25-.08 2.08-.74 2.5-2a233.7 233.7 0 0 0 1.5-16c2.97.83 5.97 1 9 .5a59.72 59.72 0 0 0 22-16.5c4.24-4.35 6.24-9.69 6-16Z"/><path fill="#0c1e1b" d="M261.5 124.5a45.71 45.71 0 0 1-20 19.5c-6.51 3.37-9.85 1.54-10-5.5.54-2.1 1.38-4.1 2.5-6a69.24 69.24 0 0 1 19.5-14.5c5.83-1.67 8.5.5 8 6.5Z"/><path fill="#e1a37d" d="M252.5 125.5c.88-.13 1.54.2 2 1a54.56 54.56 0 0 1-15.5 12c-.63-2.4.2-4.24 2.5-5.5 3.73-2.52 7.4-5.02 11-7.5Z"/><path fill="#95f47b" d="M331.5 133.5v7c-3.6-1.93-6.6-4.6-9-8 3.28-1.6 6.28-1.27 9 1Z"/><path fill="#04241e" d="M231.5 114.5a36.02 36.02 0 0 0-5 17c-1 11.15-1.33 22.49-1 34a9.6 9.6 0 0 1-1 6c.06-4.82-.78-9.49-2.5-14-.67 2.67-1.33 2.67-2 0-.5-1.63-.66-3.3-.5-5h-5c0-1.8-.5-3.47-1.5-5l-1 2c-2.09-1.96-2.92-4.12-2.5-6.5-2.02-.2-4.02-1.2-6-3 2.2-.37 4.37-.87 6.5-1.5a25.2 25.2 0 0 0 5.5 3l1 2a4.3 4.3 0 0 0 1.5 2c.5-3.32.66-6.65.5-10v-8c.67 0 1-.33 1-1a35.9 35.9 0 0 1 7.5-11l1 1c.53-2.44 1.7-3.1 3.5-2Z"/><path fill="#35ce6d" d="M317.5 129.5a11.74 11.74 0 0 0 5 3c2.4 3.4 5.4 6.07 9 8a8.43 8.43 0 0 1-.5 4 4.39 4.39 0 0 0-3.5-1 11.5 11.5 0 0 1-4-4 19.35 19.35 0 0 1-6-10Z"/><path fill="#f1e6c4" d="M261.5 124.5c-.17 2.36-.5 4.7-1 7a59.72 59.72 0 0 1-22 16.5c-3.03.5-6.03.33-9-.5a233.7 233.7 0 0 1-1.5 16c-.42 1.26-1.25 1.92-2.5 2-.33-11.51 0-22.85 1-34-.16 2.36 0 4.69.5 7a7.06 7.06 0 0 1 2.5-2c-.37 2.5.3 3.16 2 2 .15 7.04 3.49 8.87 10 5.5a45.71 45.71 0 0 0 20-19.5Z"/><path fill="#092625" d="M317.5 128.5v1c.98 3.97 2.98 7.3 6 10-.16 1.37.01 2.7.5 4 .8 2.08 1.97 3.91 3.5 5.5-.8.3-1.48.8-2 1.5.63.92.96 1.92 1 3-8.99-5.83-14.66-14-17-24.5a6.96 6.96 0 0 1 2-5.5c1.63-.83 3.63-.83 6 0-1.24 1.82-1.24 3.48 0 5Z"/><path fill="#062a23" d="M361.5 121.5a5.54 5.54 0 0 0 3 1.5c-.95.48-1.95.65-3 .5-.27 1.88.4 3.21 2 4a12.27 12.27 0 0 0-6 8c-.61.9-.94 1.9-1 3a38.63 38.63 0 0 0-4 9c.17-3.35 0-6.68-.5-10l-1 2a2.86 2.86 0 0 0-2.5-1c.54-1.62.87-3.28 1-5 1.54-2.34 2.2-5 2-8 1.14-3.14 1.3-6.47.5-10-3-4-6-4-9 0a15.43 15.43 0 0 0-2.5 7 32.5 32.5 0 0 0 0 16v13h4c.22-3.66 1.22-7 3-10a29.5 29.5 0 0 1-1 6.5 9.5 9.5 0 0 0 3 5.5 7.3 7.3 0 0 1-2 3l2 2a44.1 44.1 0 0 0-3 2 54.97 54.97 0 0 0-12-1 24.55 24.55 0 0 1 7-1.5c-4.47-.73-8.8-.23-13 1.5-1.2-.35-1.2-.85 0-1.5l-4-1c2.6-.78 2.6-1.28 0-1.5l2-2a5.58 5.58 0 0 0-1-3c.52-.7 1.2-1.2 2-1.5a16.47 16.47 0 0 1-3.5-5.5 8.43 8.43 0 0 1-.5-4 11.5 11.5 0 0 0 4 4 46.08 46.08 0 0 0 5.5 6 59.4 59.4 0 0 0-1.5-16c-1.64-4.63-4.97-6.96-10-7-1.86-.16-3.19.5-4 2-1.24-1.52-1.24-3.18 0-5-2.37-.83-4.37-.83-6 0a6.53 6.53 0 0 1 6-4c5.52-.6 10.69.4 15.5 3 .48-.95.65-1.95.5-3a23.74 23.74 0 0 1 6-10.5c5.97-4.77 11.8-4.6 17.5.5a43.47 43.47 0 0 1 4.5 12Z"/><path fill="#92ee80" d="M347.5 135.5a17.34 17.34 0 0 1-3.5 7 4.39 4.39 0 0 1-3.5 1v-5c-.36-3.49 1.14-5.82 4.5-7 2.02.53 2.85 1.87 2.5 4Z"/><path fill="#b5f595" d="M351.5 125.5c.2 3-.46 5.66-2 8l-2 2c.35-2.13-.48-3.47-2.5-4-3.36 1.18-4.86 3.51-4.5 7a32.5 32.5 0 0 1 0-16c1.13-.56 2.46-1.73 4-3.5 2.31-.5 4.64-.66 7-.5v7Z"/><path fill="#e6ede7" d="M351.5 125.5v-7c-2.36-.16-4.69 0-7 .5-1.54 1.77-2.88 2.94-4 3.5a15.43 15.43 0 0 1 2.5-7c3-4 6-4 9 0 .8 3.53.64 6.86-.5 10Z"/><path fill="#092322" d="M370.5 120.5c6.9 2.12 9.4 6.8 7.5 14a24 24 0 0 1-2.5 6 118.86 118.86 0 0 1-9 9.5 37.16 37.16 0 0 0-10 7.5c8.85 7.36 12.35 16.7 10.5 28a829.83 829.83 0 0 0-6.5 22c.93 2.1 2.1 4.1 3.5 6 .5 45 .67 90 .5 135-.83-24.16-1.33-48.5-1.5-73l-1-20c-.38-2.5-1.2-4.83-2.5-7l2-2a54.2 54.2 0 0 1-2.5-17l-1 125a24.6 24.6 0 0 1-5.5 15 9.17 9.17 0 0 1-2 4.5c1.82-.03 3.49.8 5 2.5a33.36 33.36 0 0 1-12 13.5 77.08 77.08 0 0 1-24 10.5c-38.64 1.14-77.31 1.3-116 .5a31.9 31.9 0 0 1-6-1.5c-20.98-5.81-34.48-19.15-40.5-40-1.63-48.3-1.97-96.64-1-145a32.27 32.27 0 0 1 9.5-9.5 358.84 358.84 0 0 0-7-16.5c-12.1-1.11-17.78-7.78-17-20a37.14 37.14 0 0 1 14-19.5 114.73 114.73 0 0 1 34-16.5c10.35-1.47 19.02 1.53 26 9a25.2 25.2 0 0 1-5.5-3c-2.13.63-4.3 1.13-6.5 1.5 1.98 1.8 3.98 2.8 6 3-.42 2.38.41 4.54 2.5 6.5l1-2a8.8 8.8 0 0 1 1.5 5h5c-.16 1.7 0 3.37.5 5 .67 2.67 1.33 2.67 2 0a37.58 37.58 0 0 1 2.5 14c-.16 2.69 0 5.35.5 8 5.67 3 10 7.33 13 13a43.02 43.02 0 0 1 14.5-10h4a24.12 24.12 0 0 1-2 8.5 73.82 73.82 0 0 1 5 15.5 61.3 61.3 0 0 0 2.5 8 113.5 113.5 0 0 0 9.5-8h5c2.6 2.1 5.1 4.43 7.5 7a248.9 248.9 0 0 1 11.5-8h8l8 5a6.54 6.54 0 0 0 3 3c2.7-2 5.36-4 8-6a3.27 3.27 0 0 0 3.5-2c1.13 1.1 1.96.77 2.5-1-.77-1.21-1.6-1.21-2.5 0-.67-3-.67-6 0-9 .5 1.97.66 3.97.5 6h3c.06-2.93.73-5.6 2-8a42.85 42.85 0 0 1 1 13c-1.28.89-1.28 1.89 0 3a46.6 46.6 0 0 1 6 5.5c.67.67 1.33.67 2 0a86.28 86.28 0 0 1 12.5-9.5 25.78 25.78 0 0 0 2-7 12.2 12.2 0 0 0-6.5-1c-3.53 0-6.7-1-9.5-3-.84-4.33.99-6.33 5.5-6l8 1a9.6 9.6 0 0 0 6 1c.6-3.5 1.27-7 2-10.5a3.38 3.38 0 0 0-1-2.5c.15-3.22-.85-5.88-3-8a15.62 15.62 0 0 0-8-8l-2-1c.9-.66 1.9-1.32 3-2l-2-2a7.3 7.3 0 0 0 2-3 9.5 9.5 0 0 1-3-5.5c.58-2.14.91-4.3 1-6.5.06-1.1.39-2.1 1-3 1-.09 1.83.25 2.5 1l1-2c.5 3.32.67 6.65.5 10a3.1 3.1 0 0 0 1 3 37.13 37.13 0 0 0 17-18c1.3-1.38 1.3-2.88 0-4.5-2.31-.5-4.64-.66-7-.5-1.6-.79-2.27-2.12-2-4a4.93 4.93 0 0 0 3-.5 5.54 5.54 0 0 1-3-1.5c2.9-.9 5.9-1.24 9-1Z"/><path fill="#f6f4f0" d="M230.5 221.5c-6.34-2.96-12.34-2.3-18 2 1.33-9 6.33-11.84 15-8.5a6.05 6.05 0 0 1 3 6.5Z"/><path fill="#f0f0ef" d="M308.5 219.5v2c-3.06-.8-6.06-1.8-9-3-3.01 1.35-6.01 2.69-9 4v-5c1.94-3.05 4.77-4.38 8.5-4l4.5.5a8.22 8.22 0 0 1 5 5.5Z"/><path fill="#f45344" d="M348.5 197.5c2.3-.26 4.46.08 6.5 1-.3 2.32-.97 4.66-2 7a86.28 86.28 0 0 0-12.5 9.5c-.67.67-1.33.67-2 0a46.6 46.6 0 0 0-6-5.5c-1.28-1.11-1.28-2.11 0-3 8.69 3.32 14.02.32 16-9Z"/><path fill="#21aa74" d="M323.5 192.5c.66 2.14 1 4.47 1 7-.12 2.94-.79 5.6-2 8-2.64 2-5.3 4-8 6a6.54 6.54 0 0 1-3-3 17.56 17.56 0 0 1 12-5v-13Z"/><path fill="#e69775" d="M180.5 199.5a17.1 17.1 0 0 0-1 5 998.8 998.8 0 0 1 1.5 10 29.93 29.93 0 0 1-9.5-15c.9-.7 1.24-1.7 1-3 3.1.1 5.76 1.1 8 3Z"/><path fill="#16b26a" d="M295.5 205.5a248.9 248.9 0 0 0-11.5 8c-2.4-2.57-4.9-4.9-7.5-7 2.03.16 4.03 0 6-.5-1.2-.65-1.2-1.15 0-1.5l2 2c3.48-.4 7.14-.73 11-1Z"/><path fill="#20af5d" d="M319.5 189.5c.9.61 1.9.94 3 1 .84.34 1.17 1 1 2v13a17.56 17.56 0 0 0-12 5l-8-5c3.35.16 6.68 0 10-.5a3.3 3.3 0 0 0 2-1.5 21.07 21.07 0 0 0 4-14Z"/><path fill="#e29563" d="M251.5 200.5a11.3 11.3 0 0 1 .5 8c-1.8-1.9-3.97-2.4-6.5-1.5l-4.5 4.5c-.5-1.97-.66-3.97-.5-6 1.37.16 2.7-.01 4-.5a74.8 74.8 0 0 0 7-4.5Z"/><path fill="#ea625d" d="M197.5 195.5v3h3c.11 2.55-.55 4.88-2 7 .36.68.7 1.35 1 2-4.04-1.9-7.37-1.06-10 2.5-.67.67-1.33.67-2 0-.62-1.4-.95-2.9-1-4.5a7.86 7.86 0 0 1 2-6c1.19 2.47 3.19 3.47 6 3a11.2 11.2 0 0 1 3-7Z"/><path fill="#27af63" d="M260.5 190.5v5c-.97 4.43.7 6.76 5 7 .26 3.57 2.26 4.9 6 4a113.5 113.5 0 0 1-9.5 8 61.3 61.3 0 0 1-2.5-8 64.62 64.62 0 0 1 1-16Z"/><path fill="#d5495a" d="M231.5 196.5c3.44 4.07 3.77 8.4 1 13-2.4-1.34-4.74-2.68-7-4 2.44-.18 4.6.48 6.5 2a33 33 0 0 0-.5-11Z"/><path fill="#df8f4f" d="M252.5 188.5c1.12 1.59.95 3.26-.5 5a163 163 0 0 0-10.5 6c-1.08-.87-1.25-1.87-.5-3 4.01-2.53 7.85-5.2 11.5-8Z"/><path fill="#fd566c" d="M197.5 193.5a19.81 19.81 0 0 0 11.5 0c.3.8.8 1.47 1.5 2 1.89-.43 3.72-.76 5.5-1 1.06.13 1.9.63 2.5 1.5a8.8 8.8 0 0 0-4 1.5 61.16 61.16 0 0 0-2 5.5l1 1c-3.04.36-3.38 1.03-1 2l-6.5 5.5a9.7 9.7 0 0 0-6.5-4c-.3-.65-.64-1.32-1-2a11.23 11.23 0 0 0 2-7h-3v-5Z"/><path fill="#f6efee" d="M197.5 191.5v4a11.2 11.2 0 0 0-3 7c-2.81.47-4.81-.53-6-3 .52-5.52 3.52-8.19 9-8Z"/><path fill="#0a2722" d="M272.5 133.5a640.34 640.34 0 0 1 1.5 36l1 1c.3-.8.8-1.47 1.5-2l4 2c2.75.7 5.42 1.7 8 3a42.77 42.77 0 0 0 1.5-9c2.6-8.31 8.1-12.14 16.5-11.5 1.02 1.05 1.18 2.22.5 3.5a62.74 62.74 0 0 1-8 7 19.49 19.49 0 0 0-3.5 10 42.46 42.46 0 0 1 16-2c1.48-7.63 5.82-12.96 13-16 2.6.22 2.6.72 0 1.5l4 1c-1.2.65-1.2 1.15 0 1.5a23.47 23.47 0 0 1 13-1.5c-2.54.19-4.87.69-7 1.5-8.63.97-13.96 5.64-16 14a15.34 15.34 0 0 0 7 6 26 26 0 0 1 6 14 17.75 17.75 0 0 0-2 8h-3c.16-2.03 0-4.03-.5-6-.67 3-.67 6 0 9 .9-1.21 1.73-1.21 2.5 0-.54 1.77-1.37 2.1-2.5 1a3.27 3.27 0 0 1-3.5 2 19.22 19.22 0 0 0 2-8c0-2.53-.34-4.86-1-7 .17-1-.16-1.66-1-2 .17-1-.16-1.66-1-2-7.5-11.43-16.5-12.77-27-4-2.12.18-4.12-.16-6-1-12.17-9.6-21.5-7.27-28 7a64.62 64.62 0 0 0-1 16 73.82 73.82 0 0 0-5-15.5 24.12 24.12 0 0 0 2-8.5h-4c.34-.84 1-1.17 2-1a21.73 21.73 0 0 0 10-7.5l7-3.5c1-7.64 1.33-15.3 1-23v-14Z"/><path fill="#1cbd60" d="M260.5 195.5h2c.55 2.77 1.88 5.1 4 7a91.46 91.46 0 0 0 31-1c6 .8 12 1.47 18 2a3.3 3.3 0 0 1-2 1.5c-3.32.5-6.65.66-10 .5h-8c-3.86.27-7.52.6-11 1l-2-2c-1.2.35-1.2.85 0 1.5-1.97.5-3.97.66-6 .5h-5c-3.74.9-5.74-.43-6-4-4.3-.24-5.97-2.57-5-7Z"/><path fill="#61e061" d="M312.5 185.5c1.78.4 3.45 1.06 5 2a3 3 0 0 0 2 2c.29 5.3-1.05 9.96-4 14-6-.53-12-1.2-18-2a91.46 91.46 0 0 1-31 1 12.45 12.45 0 0 1-4-7c2.3 1.58 3.8.91 4.5-2 .56.52 1.23.85 2 1a31.8 31.8 0 0 1 7.5-2c5.07.86 10.07 2.03 15 3.5a33.19 33.19 0 0 0 21-3.5 15.69 15.69 0 0 0 2-4l-4-2c.46-.8 1.12-1.13 2-1Z"/><path fill="#f75d6e" d="M212.5 187.5c1.51 5.71 4.18 6.38 8 2 3.1.71 6.1 1.71 9 3a6.99 6.99 0 0 1 2 4 33 33 0 0 1 .5 11 8.98 8.98 0 0 0-6.5-2c-2.36-.16-4.69 0-7 .5a33.55 33.55 0 0 0-11.5 7.5 67.6 67.6 0 0 1-7.5-6 9.7 9.7 0 0 1 6.5 4l6.5-5.5c-2.38-.97-2.04-1.64 1-2l-1-1c.6-1.95 1.28-3.78 2-5.5a8.8 8.8 0 0 1 4-1.5 3.43 3.43 0 0 0-2.5-1.5c-1.78.24-3.61.57-5.5 1-.7-.53-1.2-1.2-1.5-2a19.81 19.81 0 0 1-11.5 0v-2c6.44 3.66 11.44 2.32 15-4Z"/><path fill="#36181b" d="M214.5 197.5c1.37-.16 2.7.01 4 .5 1.17 2.83.17 3.83-3 3a4.39 4.39 0 0 1-1-3.5Z"/><path fill="#79e566" d="M288.5 183.5c1.88.84 3.88 1.18 6 1a28.67 28.67 0 0 1 18 1c-.88-.13-1.54.2-2 1l4 2a15.69 15.69 0 0 1-2 4 33.19 33.19 0 0 1-21 3.5 124.76 124.76 0 0 0-15-3.5 31.8 31.8 0 0 0-7.5 2 3.94 3.94 0 0 1-2-1c-.7 2.91-2.2 3.58-4.5 2h-2v-4c4.75-2.23 9.42-4.73 14-7.5 4.63-1.73 9.3-1.9 14-.5Z"/><path fill="#eda3a6" d="M223.5 187.5c2.4 1.2 4.4 2.87 6 5a49.78 49.78 0 0 0-9-3l3-2Z"/><path fill="#abeaa5" d="m317.5 187.5 4 1c.84.34 1.17 1 1 2a5.73 5.73 0 0 1-3-1 3 3 0 0 1-2-2Z"/><path fill="#faebed" d="m223.5 187.5-3 2c-3.82 4.38-6.49 3.71-8-2 .81-1.5 2.15-2.16 4-2 2.48.27 4.81.94 7 2Z"/><path fill="#f4c8a4" d="M184.5 185.5c1.5-.09 2.5.58 3 2-3.37 3.4-5.7 7.4-7 12a12.6 12.6 0 0 0-8-3c.24 1.3-.1 2.3-1 3-.8-2.41-1.8-4.75-3-7 1.08-1.83 1.08-3.83 0-6 .55-6.38 3.89-8.55 10-6.5a9.76 9.76 0 0 0 6 5.5Z"/><path fill="#eff3eb" d="M288.5 183.5a21.45 21.45 0 0 0-14 .5 151.38 151.38 0 0 1-14 7.5v-1c6.5-14.27 15.83-16.6 28-7Z"/><path fill="#ef514b" d="M359.5 177.5c.64.6.97 1.43 1 2.5-.73 3.5-1.4 7-2 10.5a9.6 9.6 0 0 1-6-1 12.03 12.03 0 0 0 1-6c.6-1.91.93-3.91 1-6-.04-2.92-.54-5.6-1.5-8a20.19 20.19 0 0 1 6.5 8Z"/><path fill="#e6f0e5" d="m321.5 188.5-4-1a16.34 16.34 0 0 0-5-2 28.67 28.67 0 0 0-18-1c10.5-8.77 19.5-7.43 27 4Z"/><path fill="#6bda7e" d="M214.5 173.5a56.04 56.04 0 0 1-12 13l-10-5a14.7 14.7 0 0 0-3-3.5c4.66.16 9.32.16 14 0 2.74-4.18 6.4-5.68 11-4.5Z"/><path fill="#d96c4e" d="M149.5 174.5c2.65 1.64 5.32 3.3 8 5-1.53 1.29-3.2 1.29-5 0a19.22 19.22 0 0 1-3-5Z"/><path fill="#f2ddaf" d="M263.5 148.5a4.53 4.53 0 0 1 3 4.5 21.08 21.08 0 0 1-8 15 46.37 46.37 0 0 1-28 10.5 25.6 25.6 0 0 1 1-10c-.32 6.5 2.68 8.66 9 6.5a42.33 42.33 0 0 0 22.5-20.5c.5-1.97.66-3.97.5-6Z"/><path fill="#a4e198" d="M214.5 173.5c-4.6-1.18-8.26.32-11 4.5-4.68.16-9.34.16-14 0a14.7 14.7 0 0 1 3 3.5c-9.73-5.5-8.73-7.5 3-6 1.96 1.83 4.29 2.33 7 1.5a17.5 17.5 0 0 1 13-7.5 6.92 6.92 0 0 1-1 4Z"/><path fill="#ec9962" d="M272.5 147.5c.33 7.7 0 15.36-1 23l-7 3.5a21.73 21.73 0 0 1-10 7.5c-1.17-1.27-2-2.6-2.5-4 1.41-3.29 3.91-4.96 7.5-5a4.93 4.93 0 0 1 .5-3 15.42 15.42 0 0 0 6-7 72.84 72.84 0 0 0 4-15c.77-1.1 1.6-1.1 2.5 0Z"/><path fill="#fd7d52" d="M353.5 183.5c.18 2.12-.16 4.12-1 6l-8-1c-4.51-.33-6.34 1.67-5.5 6 2.8 2 5.97 3 9.5 3-1.98 9.32-7.31 12.32-16 9 .32-4.53-.01-8.87-1-13a26 26 0 0 0-6-14c-.13-.88.2-1.54 1-2 .95.83 1.95 1 3 .5.45-3.56 2.45-5.56 6-6 3.33-.67 6.67-.67 10 0a4.27 4.27 0 0 1 2 4.5 4.85 4.85 0 0 1 4 1 41.65 41.65 0 0 0 2 6Z"/><path fill="#0e3024" d="M195.5 167.5h8a71.15 71.15 0 0 1-11 5.5c1.07.85 2.07 1.69 3 2.5-11.73-1.5-12.73.5-3 6l10 5c-4.59.63-9.09.63-13.5 0a4.16 4.16 0 0 1 .5-4.5c-3.72-1.66-5.06-4.33-4-8a59.6 59.6 0 0 0 10-4 128.5 128.5 0 0 0-16-.5l16-2Z"/><path fill="#fc875c" d="M334.5 164.5c8.02-.76 15.35.9 22 5a10.02 10.02 0 0 1 3 8 20.19 20.19 0 0 0-6.5-8c.96 2.4 1.46 5.08 1.5 8a22.8 22.8 0 0 1-1 6 41.65 41.65 0 0 1-2-6 4.85 4.85 0 0 0-4-1 4.27 4.27 0 0 0-2-4.5 25.24 25.24 0 0 0-10 0c-3.55.44-5.55 2.44-6 6-1.05.5-2.05.33-3-.5-.8.46-1.13 1.12-1 2a15.34 15.34 0 0 1-7-6 82.93 82.93 0 0 0 9-6.5 15.43 15.43 0 0 1 7-2.5Z"/><path fill="#0b211d" d="M263.5 148.5c.16 2.03 0 4.03-.5 6a42.33 42.33 0 0 1-22.5 20.5c-6.32 2.16-9.32 0-9-6.5 5.9-10.89 14.9-18.22 27-22 1.8.4 3.47 1.07 5 2Z"/><path fill="#a67150" d="M200.5 167.5h-5v-1c1.96-1.43 3.62-1.1 5 1Z"/><path fill="#f4c8ae" d="M348.5 161.5a15.62 15.62 0 0 1 8 8 34.64 34.64 0 0 0-22-5 83.03 83.03 0 0 1 13-1.5c.56-.38.89-.88 1-1.5Z"/><path fill="#e5a880" d="M254.5 154.5c.88-.13 1.54.2 2 1-4.86 6.28-10.86 10.28-18 12a38.93 38.93 0 0 1 5-5.5c3.73-2.52 7.4-5.02 11-7.5Z"/><path fill="#f5f0ea" d="M334.5 159.5c4.05-.1 8.05.23 12 1l2 1a2.26 2.26 0 0 1-1 1.5c-4.52.18-8.85.68-13 1.5a15.43 15.43 0 0 0-7 2.5 82.93 82.93 0 0 1-9 6.5c2.04-8.36 7.37-13.03 16-14Z"/><path fill="#efc5a6" d="M207.5 146.5c1.11 1.45 1.28 3.11.5 5a46.6 46.6 0 0 0-5.5 6c1.2 2.4 2.87 4.4 5 6a11.5 11.5 0 0 1-4 4h-3c-1.38-2.1-3.04-2.43-5-1-3.47.61-5.47-.72-6-4 3.2-1.6 6.2-1.27 9 1a31.3 31.3 0 0 0 3.5-9 10.94 10.94 0 0 0 5.5-8Z"/><path fill="#e2dddf" d="M216.5 153.5c1.84 1.78 2.51 4.11 2 7h-5a7.07 7.07 0 0 1 3-7Z"/><path fill="#48bc77" d="M331.5 133.5a59.4 59.4 0 0 1 1.5 16 46.08 46.08 0 0 1-5.5-6 4.39 4.39 0 0 1 3.5 1c.49-1.3.66-2.63.5-4v-7Z"/><path fill="#f7dab9" d="M206.5 144.5c.84.34 1.17 1 1 2a10.94 10.94 0 0 1-5.5 8 31.3 31.3 0 0 1-3.5 9c-2.8-2.27-5.8-2.6-9-1 .53 3.28 2.53 4.61 6 4v1l-16 2c-1.94 1.51-2.44 3.51-1.5 6a26.57 26.57 0 0 0 6.5 10 9.76 9.76 0 0 1-6-5.5c-6.11-2.05-9.45.12-10 6.5 1.08 2.17 1.08 4.17 0 6a155.05 155.05 0 0 0-5-13 8.48 8.48 0 0 0-6 0c-2.68-1.7-5.35-3.36-8-5v-2c5.9-10.39 14.57-17.89 26-22.5a41.16 41.16 0 0 1 26-5c1.37.4 2.7.9 4 1.5.8-.46 1.13-1.12 1-2Z"/><path fill="#7a8a89" d="M218.5 135.5c.16 3.35 0 6.68-.5 10a4.3 4.3 0 0 1-1.5-2l2-8Z"/><path fill="#5ecb7e" d="M349.5 133.5a20.69 20.69 0 0 1-1 5c-.61.9-.94 1.9-1 3-1.78 3-2.78 6.34-3 10h-4v-8a4.39 4.39 0 0 0 3.5-1 17.34 17.34 0 0 0 3.5-7l2-2Z"/><path fill="#f5f4f0" d="M206.5 144.5c.13.88-.2 1.54-1 2-1.3-.6-2.63-1.1-4-1.5-9.2-1.2-17.87.47-26 5-11.43 4.61-20.1 12.11-26 22.5.05-7.25 3.05-13.09 9-17.5a66.94 66.94 0 0 1 35.5-14.5c4.97-.75 9.14.58 12.5 4Z"/><path fill="#2eb466" d="M370.5 132.5a37.13 37.13 0 0 1-17 18 3.1 3.1 0 0 1-1-3 38.63 38.63 0 0 1 4-9v3a4.93 4.93 0 0 0 3-.5c3.56-3.07 7.23-5.9 11-8.5Z"/><path fill="#f6f4f1" d="M282.5 261.5c-.67-12.17-1.33-24.5-2-37a11.13 11.13 0 0 0-7-3c-4.3 1.82-8.47 3.82-12.5 6a28.49 28.49 0 0 1-12.5-7 36.54 36.54 0 0 0-8.5 5c-.17 11.5-.67 22.84-1.5 34-.17-13 0-26 .5-39l9-7a93.19 93.19 0 0 0 13 10l13-9c3 2 5.67 4.34 8 7 .5 13.33.67 26.66.5 40Z"/><path fill="#dc986a" d="M230.5 221.5v12a46.7 46.7 0 0 0-2.5-7 7.3 7.3 0 0 0-2 3c-1.13-1.1-1.97-.77-2.5 1-3.11.88-6.11 1.88-9 3-.82 4.46-1.49 11.46-2 21v-31c5.66-4.3 11.66-4.96 18-2Z"/><path fill="#f5f5f3" d="M204.5 224.5a56.02 56.02 0 0 1-8.5-4 11.07 11.07 0 0 0-3.5 2 10.26 10.26 0 0 1-1.5-4 26.12 26.12 0 0 0-7.5 8.5 16.15 16.15 0 0 1-13-5 11.6 11.6 0 0 0-7 .5v-6c.9-2.41 2.57-3.25 5-2.5a60.86 60.86 0 0 0 13.5 9.5l13-9c4.8 1.97 7.97 5.3 9.5 10Z"/><path fill="#f5f5f4" d="M356.5 217.5v2c-2.1-.3-4.1.03-6 1a15.35 15.35 0 0 1-11.5 7 119.15 119.15 0 0 0-16.5-7 278.19 278.19 0 0 1-6 6c.62-5.8 3.79-9.8 9.5-12 4.1 3.1 8.43 5.77 13 8a9.62 9.62 0 0 0 4.5-1.5 38.18 38.18 0 0 1 9-7.5 11.5 11.5 0 0 1 4 4Z"/><path fill="#fde2c5" d="M356.5 219.5c.6 40.03.27 63.37-1 70v-48c.17-5.68 0-11.34-.5-17-.73 4.06-1.56 7.72-2.5 11a36.37 36.37 0 0 0-4-7 31.12 31.12 0 0 0-1 11h-4v4h-4v-4h-4a4.39 4.39 0 0 1-1 3.5c-4.4-.1-8.73.08-13 .5-.8 9.32-1.97 18.65-3.5 28a55.15 55.15 0 0 0-1.5-9v-36c1.99-1.92 3.99-3.92 6-6a119.15 119.15 0 0 1 16.5 7 15.35 15.35 0 0 0 11.5-7c1.9-.97 3.9-1.3 6-1Z"/><path fill="#fbe1c3" d="M282.5 261.5v1c-1.6 8.92 1.4 15.59 9 20-1.04 1.3-2.2 1.3-3.5 0-1.5.83-2.67 2-3.5 3.5a558.03 558.03 0 0 1 5 15.5 52.34 52.34 0 0 0-1 13c.25 1.9-.08 2.57-1 2 1.43-16.3-5.57-27.14-21-32.5-21.53-1.3-32.87 8.86-34 30.5-.82-2.8-1.32-5.8-1.5-9l-1 6a7.3 7.3 0 0 1-2-3 27.1 27.1 0 0 1 1-11l-2.5 3c-1.21-.77-1.21-1.6 0-2.5a29.52 29.52 0 0 1-4.5-2.5c-.2-3.59-.7-7.09-1.5-10.5 1.88-.2 3.55-.7 5-1.5 11.37-3.06 15.7-10.4 13-22v-2c.83-11.16 1.33-22.5 1.5-34a36.54 36.54 0 0 1 8.5-5 28.49 28.49 0 0 0 12.5 7c4.03-2.18 8.2-4.18 12.5-6 2.7.18 5.02 1.18 7 3 .67 12.5 1.33 24.83 2 37Z"/><path fill="#fde3c7" d="M204.5 224.5v38c-.49-8.88-1.16-15.21-2-19a7.1 7.1 0 0 0-6 2 62.57 62.57 0 0 1-7-4.5c-2.69-.4-5.35-.9-8-1.5-2.6 1.1-5.1 2.44-7.5 4a10.26 10.26 0 0 0-1.5-4 24.3 24.3 0 0 1-5 6.5c.37 2.24 1.37 2.74 3 1.5a4.85 4.85 0 0 1 1 4h-4a155 155 0 0 0-3 38 90.9 90.9 0 0 1-1 19v-86a11.6 11.6 0 0 1 7-.5 16.15 16.15 0 0 0 13 5 26.12 26.12 0 0 1 7.5-8.5c.22 1.44.72 2.77 1.5 4a11.07 11.07 0 0 1 3.5-2 56.02 56.02 0 0 0 8.5 4Z"/><path fill="#d68c60" d="M308.5 221.5c.33 11.51 0 22.85-1 34 .17-7.34 0-14.67-.5-22-.46 4.33-2.63 6-6.5 5-2.99 1.17-4.82 2.84-5.5 5a9.26 9.26 0 0 1-2.5-2c-.67 4.48-1.33 8.82-2 13v-32c2.99-1.31 5.99-2.65 9-4 2.94 1.2 5.94 2.2 9 3Z"/><path fill="#022726" d="M364.5 348.5a67.28 67.28 0 0 1-1.5 13 39.75 39.75 0 0 1-7.5 15c-1.51-1.7-3.18-2.53-5-2.5a9.17 9.17 0 0 0 2-4.5 24.6 24.6 0 0 0 5.5-15l1-125a54.2 54.2 0 0 0 2.5 17l-2 2c1.3 2.17 2.13 4.5 2.5 7l1 20c.17 24.5.67 48.84 1.5 73Z"/><path fill="#021b18" d="M289.5 217.5c-.27 15.36.06 30.7 1 46a20.36 20.36 0 0 1-3-6c-1.04 2.5-1.87 2.5-2.5 0l-1 4a400.05 400.05 0 0 1 0-40c.63 2.5 1.46 2.5 2.5 0a10.26 10.26 0 0 1 1.5 4c.18-2.87.68-5.53 1.5-8Z"/><path fill="#cb825b" d="M230.5 233.5v22h-18v-1c.51-9.54 1.18-16.54 2-21 2.89-1.12 5.89-2.12 9-3 .53-1.77 1.37-2.1 2.5-1a7.3 7.3 0 0 1 2-3 46.7 46.7 0 0 1 2.5 7Z"/><path fill="#a8523f" d="M212.5 255.5h18c1.15 7.05-1.68 11.38-8.5 13-7.53-1.07-10.7-5.4-9.5-13Z"/><path fill="#9b5544" d="M289.5 217.5h1v37a72.85 72.85 0 0 0 17 1c1-11.15 1.33-22.49 1-34v-2a295.59 295.59 0 0 1 .5 42c-3.28 5.6-8.11 7.44-14.5 5.5a19.55 19.55 0 0 0-4-3.5 585.38 585.38 0 0 1-1-46Z"/><path fill="#cb7e58" d="M307.5 255.5a72.85 72.85 0 0 1-17-1c.67-4.18 1.33-8.52 2-13a9.26 9.26 0 0 0 2.5 2c.68-2.16 2.51-3.83 5.5-5 3.87 1 6.04-.67 6.5-5 .5 7.33.67 14.66.5 22Z"/><path fill="#f7d9b8" d="M204.5 262.5c.84.34 1.17 1 1 2-.65 13.68 6.01 20 20 19-1.45.8-3.12 1.3-5 1.5.8 3.41 1.3 6.91 1.5 10.5 1.42.96 2.92 1.8 4.5 2.5-1.21.9-1.21 1.73 0 2.5l2.5-3a27.1 27.1 0 0 0-1 11 7.3 7.3 0 0 0 2 3l1-6c.18 3.2.68 6.2 1.5 9 2.74 10.41 9.08 17.75 19 22-.06.54-.4.88-1 1-2.73-2.06-5.23-2.06-7.5 0a120.9 120.9 0 0 0-10.5-6.5 4.39 4.39 0 0 1-1-3.5h-3c-.25-2.97-1.91-4.3-5-4v-3c-1.7.16-3.37 0-5-.5a4.16 4.16 0 0 0 .5-4.5l-1 2a78.45 78.45 0 0 1-5.5-4c-1.83 2.3-3.5 1.97-5-1a16.87 16.87 0 0 0-8-1 7.11 7.11 0 0 0-1-5 7.25 7.25 0 0 0-2.5 2l-1-3c-1.15.96-2.15.63-3-1-.5-1.63-.66-3.3-.5-5h-6a4.39 4.39 0 0 1 1-3.5l-1.5-1.5a9.09 9.09 0 0 1-5.5 1c.42-2.74-.74-4.08-3.5-4a9.49 9.49 0 0 0-7 4l-1-4c-.3.8-.8 1.48-1.5 2a71.25 71.25 0 0 0-2-4 155 155 0 0 1 3-38h4a4.85 4.85 0 0 0-1-4c-1.63 1.24-2.63.74-3-1.5a24.3 24.3 0 0 0 5-6.5 10.26 10.26 0 0 1 1.5 4c2.4-1.56 4.9-2.9 7.5-4 2.65.6 5.31 1.1 8 1.5a62.57 62.57 0 0 0 7 4.5 7.1 7.1 0 0 1 6-2c.84 3.79 1.51 10.12 2 19Z"/><path fill="#d49f83" d="M238.5 261.5c2.7 11.6-1.63 18.94-13 22-13.99 1-20.65-5.32-20-19 5.86 11.08 14.52 13.92 26 8.5a23.2 23.2 0 0 0 7-11.5Z"/><path fill="#f8daba" d="M355.5 241.5a6.1 6.1 0 0 0-2 3.5c2.02 5.9 1.02 11.07-3 15.5.87 2.25 1.2 4.58 1 7-4.4.56-5.07 2.56-2 6a24.65 24.65 0 0 0-2.5 9l-1-1a7.03 7.03 0 0 1-5 5c-.4-.23-.56-.56-.5-1-.82-7.32-3.99-8.65-9.5-4-1.33 4.84.5 7.17 5.5 7a32.51 32.51 0 0 1-13 3v4a9.03 9.03 0 0 0-7.5 2 5.57 5.57 0 0 0-.5-3c-2.59.7-4.92 1.86-7 3.5l3 1-1 1c-1.6-.02-3.27-.19-5-.5a4.39 4.39 0 0 1-1 3.5c-2.83-.1-5.83.07-9 .5.3 2.42-.03 4.76-1 7-1.8 2.4-3.8 3.73-6 4-.2-4.38.13-8.71 1-13a558.03 558.03 0 0 0-5-15.5c.83-1.5 2-2.67 3.5-3.5 1.3 1.3 2.46 1.3 3.5 0 13.3 3.86 21.63-.81 25-14a12.62 12.62 0 0 0-1-4c-.17-1 .16-1.66 1-2a55.15 55.15 0 0 1 1.5 9c1.53-9.35 2.7-18.68 3.5-28 4.27-.42 8.6-.6 13-.5a4.39 4.39 0 0 0 1-3.5h4v4h4v-4h4c-.32-3.73.01-7.4 1-11a36.37 36.37 0 0 1 4 7c.94-3.28 1.77-6.94 2.5-11 .5 5.66.67 11.32.5 17Z"/><path fill="#d39b7f" d="M282.5 262.5c6.5 14.17 16.33 16.84 29.5 8a28.17 28.17 0 0 0 3.5-6c.54 1.24.88 2.57 1 4-3.37 13.19-11.7 17.86-25 14-7.6-4.41-10.6-11.08-9-20Z"/><path fill="#31332a" d="M340.5 285.5a4.78 4.78 0 0 1-4 3c-5 .17-6.83-2.16-5.5-7 5.51-4.65 8.68-3.32 9.5 4Z"/><path fill="#0a2824" d="M287.5 316.5c-6.32 16.5-18.32 23.17-36 20-9.92-4.25-16.26-11.59-19-22 1.13-21.64 12.47-31.8 34-30.5 15.43 5.36 22.43 16.2 21 32.5Z"/><path fill="#eec9a4" d="M313.5 346.5h2a4.85 4.85 0 0 1-1 4 39.04 39.04 0 0 0-8.5 6c-.41-.46-.91-.8-1.5-1a4.85 4.85 0 0 0-1 4h-4c-.16 1.37.01 2.7.5 4 .74 1.14 1.57 1.14 2.5 0 1.64 1.2 1.97 2.54 1 4a4.71 4.71 0 0 1 2 4c-2.03-.16-4.03 0-6 .5 5.21.29 10.21.46 15 .5-2.3.56-4.63 1.06-7 1.5-32.33.67-64.67.67-97 0a57.82 57.82 0 0 1-22-10c-2.61-2.24-2.61-4.41 0-6.5 2.95-4.53 2.28-8.7-2-12.5-1.87-.71-3.37-.21-4.5 1.5-.5 1.97-.66 3.97-.5 6-.62 2.48-1.62 2.48-3 0-5.41.95-8.75-1.38-10-7a4.39 4.39 0 0 1-3.5-1l-1 5c-.5-3.32-.66-6.65-.5-10a81.56 81.56 0 0 0 1-18c2.93-.79 4.77-2.79 5.5-6 1.31.81 2.48 1.81 3.5 3 .59-.2 1.09-.54 1.5-1a38.42 38.42 0 0 1 6 8c1.9.22 3.72.22 5.5 0a22.53 22.53 0 0 0 4 3c-2.67 1-2.67 2 0 3l2-5c1.3.6 2.63 1.1 4 1.5a18.84 18.84 0 0 0-1.5 7.5 12.57 12.57 0 0 0 2-6c2.54 1.38 2.7 2.54.5 3.5 1.8.32 2.13.98 1 2 1.33.67 2.67.67 4 0-2.1-.56-2.26-1.06-.5-1.5a9.57 9.57 0 0 1 3 3c.32-1.8.98-2.13 2-1a3.82 3.82 0 0 1 2.5-2 17.3 17.3 0 0 1 4.5 4l1-1a15.45 15.45 0 0 0 3 5l1-1c.48.95.65 1.95.5 3 3.2-.38 5.87.62 8 3-.35 1.2-.85 1.2-1.5 0-.67.67-.67 1.33 0 2 1.78.74 3.62 1.4 5.5 2 .41-.76.58-1.76.5-3 1 1.33 2 1.33 3 0a24.16 24.16 0 0 0 6.5 5c-.83.95-1 1.95-.5 3 1.67.16 3.34-.51 5-2 1.33 1.3 2.66 2.63 4 4l1-2 3 3 1-4c.67 1.33 1.33 1.33 2 0a5.89 5.89 0 0 1 3 4c2.5-4.1 3.34-3.93 2.5.5.95.48 1.95.65 3 .5.16-3.55 1.82-4.89 5-4a32.44 32.44 0 0 1 6-1.5c-1.9-1.06-2.06-1.9-.5-2.5a9.26 9.26 0 0 1 2.5 2c1-3.49 3.34-4.82 7-4v-3c2.41.26 4.08-.74 5-3 2.54 5.35 3.87 5.35 4 0 .7 2.51 2.03 3.18 4 2a6.04 6.04 0 0 0 5 2v-4c3.29.4 6.12 1.73 8.5 4 .76-.07 1.26-.4 1.5-1Z"/><path fill="#e9c39e" d="M356.5 217.5c1.33 45.33 1.33 90.67 0 136a83.03 83.03 0 0 1-1.5-13 20.45 20.45 0 0 1-9.5 11.5 74.5 74.5 0 0 1-31 20.5c-4.79-.04-9.79-.21-15-.5 1.97-.5 3.97-.66 6-.5a4.71 4.71 0 0 0-2-4c.97-1.46.64-2.8-1-4-.93 1.14-1.76 1.14-2.5 0a8.43 8.43 0 0 1-.5-4h4a4.85 4.85 0 0 1 1-4c.59.2 1.09.54 1.5 1a39.04 39.04 0 0 1 8.5-6 4.85 4.85 0 0 0 1-4c7.03.84 9.03-1.66 6-7.5-2.31-.5-4.64-.66-7-.5 1.45-.8 3.12-1.3 5-1.5-5-.87-4.68-1.54 1-2-1.05-1.72-.39-2.72 2-3l-3-1c2.12-.56 4.12-1.4 6-2.5l1-4a6.8 6.8 0 0 1 1.5 3 4.16 4.16 0 0 0-.5-4.5c1.65-1.4 3.31-1.57 5-.5-.52.7-1.2 1.2-2 1.5 8.24-1.7 14.58-6.2 19-13.5 1.4 1.14 2.72 1.14 4 0a279.5 279.5 0 0 1 2-21c1.27-6.63 1.6-29.97 1-70v-2Z"/><path fill="#f2d0ad" d="M355.5 241.5v48a279.5 279.5 0 0 0-2 21c-1.28 1.14-2.6 1.14-4 0-4.42 7.3-10.76 11.8-19 13.5.8-.3 1.48-.8 2-1.5-1.69-1.07-3.35-.9-5 .5a4.16 4.16 0 0 1 .5 4.5 6.8 6.8 0 0 0-1.5-3l-1 4a23.66 23.66 0 0 1-6 2.5l3 1c-2.39.28-3.05 1.28-2 3-5.68.46-6 1.13-1 2-1.88.2-3.55.7-5 1.5-3.56 2.23-3.89 4.9-1 8-.24.6-.74.93-1.5 1a14.49 14.49 0 0 0-8.5-4v4a6.04 6.04 0 0 1-5-2c-1.97 1.18-3.3.51-4-2-.13 5.35-1.46 5.35-4 0-.92 2.26-2.59 3.26-5 3v3c-3.66-.82-6 .51-7 4a9.26 9.26 0 0 0-2.5-2c-1.56.6-1.4 1.44.5 2.5-2.06.31-4.06.81-6 1.5-3.18-.89-4.84.45-5 4a4.93 4.93 0 0 1-3-.5c.84-4.43 0-4.6-2.5-.5a5.89 5.89 0 0 0-3-4c-.67 1.33-1.33 1.33-2 0l-1 4-3-3-1 2c-1.34-1.37-2.67-2.7-4-4-1.66 1.49-3.33 2.16-5 2-.5-1.05-.33-2.05.5-3a24.16 24.16 0 0 1-6.5-5c-1 1.33-2 1.33-3 0a5.57 5.57 0 0 1-.5 3 66.68 66.68 0 0 1-5.5-2c-.67-.67-.67-1.33 0-2 .65 1.2 1.15 1.2 1.5 0a8.79 8.79 0 0 0-8-3 4.93 4.93 0 0 0-.5-3l-1 1a15.45 15.45 0 0 1-3-5l-1 1a17.3 17.3 0 0 0-4.5-4 3.82 3.82 0 0 0-2.5 2c-1.02-1.13-1.68-.8-2 1a9.57 9.57 0 0 0-3-3c-1.76.44-1.6.94.5 1.5a4.25 4.25 0 0 1-4 0c1.13-1.02.8-1.68-1-2 2.2-.96 2.04-2.12-.5-3.5a12.57 12.57 0 0 1-2 6c-.02-2.55.48-5.05 1.5-7.5-1.37-.4-2.7-.9-4-1.5l-2 5c-2.67-1-2.67-2 0-3a22.53 22.53 0 0 1-4-3c-1.78.22-3.6.22-5.5 0a38.42 38.42 0 0 0-6-8c-.41.46-.91.8-1.5 1a14.97 14.97 0 0 0-3.5-3c-.73 3.21-2.57 5.21-5.5 6a81.56 81.56 0 0 1-1 18v-31a90.9 90.9 0 0 0 1-19 71.25 71.25 0 0 1 2 4c.7-.52 1.2-1.2 1.5-2l1 4a9.49 9.49 0 0 1 7-4c2.76-.08 3.92 1.26 3.5 4 1.97.24 3.8-.1 5.5-1l1.5 1.5a4.39 4.39 0 0 0-1 3.5h6c-.16 1.7 0 3.37.5 5 .85 1.63 1.85 1.96 3 1l1 3a7.25 7.25 0 0 1 2.5-2 7.11 7.11 0 0 1 1 5c2.75-.31 5.41.02 8 1 1.5 2.97 3.17 3.3 5 1a78.45 78.45 0 0 0 5.5 4l1-2a4.16 4.16 0 0 1-.5 4.5c1.63.5 3.3.66 5 .5v3c3.09-.3 4.75 1.03 5 4h3a4.39 4.39 0 0 0 1 3.5c3.6 1.98 7.1 4.15 10.5 6.5 2.27-2.06 4.77-2.06 7.5 0 .6-.12.94-.46 1-1 17.68 3.17 29.68-3.5 36-20 .92.57 1.25-.1 1-2 2.2-.27 4.2-1.6 6-4 .97-2.24 1.3-4.58 1-7 3.17-.43 6.17-.6 9-.5a4.39 4.39 0 0 0 1-3.5c1.73.31 3.4.48 5 .5l1-1-3-1a19.22 19.22 0 0 1 7-3.5c.41.76.58 1.76.5 3a9.03 9.03 0 0 1 7.5-2v-4a32.51 32.51 0 0 0 13-3 4.78 4.78 0 0 0 4-3c-.06.44.1.77.5 1a7.03 7.03 0 0 0 5-5l1 1c.26-3.16 1.1-6.16 2.5-9-3.07-3.44-2.4-5.44 2-6 .2-2.42-.13-4.75-1-7 4.02-4.43 5.02-9.6 3-15.5a6.1 6.1 0 0 1 2-3.5Z"/><path fill="#fbddc2" d="M248.5 326.5c-.67 0-1-.33-1-1a9.02 9.02 0 0 0-3-5.5 73.83 73.83 0 0 1 11-2.5c-.36-.68-.7-1.35-1-2 0-.67.33-1 1-1 2.86-2.21 4.2-5.21 4-9 2.07.73 3.74 1.4 5 2a28.82 28.82 0 0 0-1 10 6.48 6.48 0 0 1 4.5 1c.14 2.02.3 3.86.5 5.5a26.08 26.08 0 0 1-15.5.5 3.63 3.63 0 0 0-2 2c-.98-1.27-1.81-1.27-2.5 0Z"/><path fill="#f7e4cc" d="M248.5 326.5c.69-1.27 1.52-1.27 2.5 0a3.63 3.63 0 0 1 2-2 26.08 26.08 0 0 0 15.5-.5c-.2-1.64-.36-3.48-.5-5.5a6.48 6.48 0 0 0-4.5-1c-.25-3.4.08-6.74 1-10a50.25 50.25 0 0 0-5-2c.2 3.79-1.14 6.79-4 9 .98-5.84-1.35-8.67-7-8.5-2.42 3.38-2.59 6.88-.5 10.5 2.41 1.36 4.58 1.02 6.5-1 .3.65.64 1.32 1 2-3.81.57-7.48 1.4-11 2.5a9.02 9.02 0 0 1 3 5.5c-6-5.66-8.17-12.66-6.5-21 6.02-13.45 15.86-17.29 29.5-11.5 12.01 10.11 13.01 21.11 3 33-8.25 5.82-16.58 6-25 .5Z"/><path fill="#0a221f" d="M268.5 305.5a4.6 4.6 0 0 1 4.5 2c.67 2.67.67 5.33 0 8-4.44 2.86-6.94 1.53-7.5-4a8 8 0 0 1 3-6Z"/><path fill="#182522" d="M255.5 314.5c-.67 0-1 .33-1 1-1.92 2.02-4.09 2.36-6.5 1-2.09-3.62-1.92-7.12.5-10.5 5.65-.17 7.98 2.66 7 8.5Z"/><path fill="#ce7e5a" d="M314.5 338.5c2.36-.16 4.69 0 7 .5 3.03 5.84 1.03 8.34-6 7.5h-2c-2.89-3.1-2.56-5.77 1-8Z"/><path fill="#202e2e" d="M188.5 357.5h-3l-4-5c-.16-2.03 0-4.03.5-6 1.13-1.71 2.63-2.21 4.5-1.5 4.28 3.8 4.95 7.97 2 12.5Z"/><path fill="#be9678" d="M163.5 216.5v123c-.16 3.35 0 6.68.5 10l1-5a4.39 4.39 0 0 0 3.5 1c1.25 5.62 4.59 7.95 10 7 1.38 2.48 2.38 2.48 3 0l4 5c-.63 1.45-1.8 2.11-3.5 2-4.72.13-8.06-1.88-10-6-.71 1.87-.21 3.37 1.5 4.5a8.9 8.9 0 0 0-4 3 33.66 33.66 0 0 1 5 15.5 44.67 44.67 0 0 1-11.5-26c-.83-44.83-.66-89.5.5-134Z"/><path fill="#d48d68" d="M351.5 369.5c-7.9 13.3-19.56 21.12-35 23.5-38.07.83-76.07.66-114-.5a38.72 38.72 0 0 0-5-2.5c4.56-2.4 9.4-2.56 14.5-.5l1-2a8.77 8.77 0 0 0 7.5 3.5c16 .67 32 .67 48 0a65.69 65.69 0 0 1 16.5-3.5c.32 2.07 1.16 2.4 2.5 1 2.11.53 3.95 1.53 5.5 3a24.32 24.32 0 0 1 10.5-9.5 6.98 6.98 0 0 0 2.5-3.5l1 1c.61-2.53 2.11-3.37 4.5-2.5-2.5 1.25-2.32 2.42.5 3.5.7-2.4 1.7-2.4 3 0a42.36 42.36 0 0 1 8.5-1.5c.75-1.49 1.59-1.65 2.5-.5.5-2.4 1.68-3.07 3.5-2a21.62 21.62 0 0 1 8-7.5l-1-1 3-4a4.23 4.23 0 0 1-.5-3.5c2.73-3.23 5.9-5.9 9.5-8 1.43 2 2.76 4.17 4 6.5a3.63 3.63 0 0 1-2 2 6.8 6.8 0 0 1 3 1.5 21.03 21.03 0 0 0-2 7Z"/><path fill="#d3916e" d="M356.5 353.5a71.27 71.27 0 0 1-4 16h-1c.26-2.44.92-4.77 2-7a6.8 6.8 0 0 0-3-1.5 3.63 3.63 0 0 0 2-2 58.49 58.49 0 0 0-4-6.5 36.25 36.25 0 0 0-9.5 8 4.23 4.23 0 0 0 .5 3.5l-3 4 1 1a21.62 21.62 0 0 0-8 7.5c-1.82-1.07-3-.4-3.5 2-.91-1.15-1.75-.99-2.5.5-2.93.22-5.76.72-8.5 1.5-1.3-2.4-2.3-2.4-3 0-2.82-1.08-3-2.25-.5-3.5-2.39-.87-3.89-.03-4.5 2.5l-1-1a6.98 6.98 0 0 1-2.5 3.5 24.32 24.32 0 0 0-10.5 9.5 12.24 12.24 0 0 0-5.5-3c-1.34 1.4-2.18 1.07-2.5-1a65.69 65.69 0 0 0-16.5 3.5c-16 .67-32 .67-48 0a8.77 8.77 0 0 1-7.5-3.5l-1 2c-5.1-2.06-9.94-1.9-14.5.5 1.81.76 3.48 1.59 5 2.5a49.68 49.68 0 0 1-28-16 33.66 33.66 0 0 0-5-15.5 8.9 8.9 0 0 1 4-3c-1.71-1.13-2.21-2.63-1.5-4.5 1.94 4.13 5.28 6.13 10 6 1.7.11 2.87-.55 3.5-2h3c-2.61 2.09-2.61 4.26 0 6.5a57.82 57.82 0 0 0 22 10c32.33.67 64.67.67 97 0 2.37-.44 4.7-.94 7-1.5a74.5 74.5 0 0 0 31-20.5 20.45 20.45 0 0 0 9.5-11.5c.18 4.52.68 8.85 1.5 13Z"/></svg>
